<svg width="40" height="40" viewBox="0 0 40 40" fill="none" xmlns="http://www.w3.org/2000/svg">
<rect width="40" height="40" rx="20" fill="#FD6F08"/>
<path fill-rule="evenodd" clip-rule="evenodd" d="M10 13C10 12.4477 10.4477 12 11 12H29C29.5523 12 30 12.4477 30 13C30 13.5523 29.5523 14 29 14H11C10.4477 14 10 13.5523 10 13ZM10 20C10 19.4477 10.4477 19 11 19H29C29.5523 19 30 19.4477 30 20C30 20.5523 29.5523 21 29 21H11C10.4477 21 10 20.5523 10 20ZM11 26C10.4477 26 10 26.4477 10 27C10 27.5523 10.4477 28 11 28H29C29.5523 28 30 27.5523 30 27C30 26.4477 29.5523 26 29 26H11Z" fill="white"/>
</svg>
