<svg width="40" height="40" viewBox="0 0 40 40" fill="none" xmlns="http://www.w3.org/2000/svg">
<rect width="40" height="40" rx="20" fill="#FD6F08"/>
<path fill-rule="evenodd" clip-rule="evenodd" d="M25.4349 26.8491C25.8254 27.2396 26.4586 27.2396 26.8491 26.8491C27.2396 26.4586 27.2396 25.8254 26.8491 25.4349L21.1923 19.7781L26.8491 14.1213C27.2397 13.7308 27.2397 13.0976 26.8491 12.7071C26.4586 12.3166 25.8254 12.3166 25.4349 12.7071L19.7781 18.3639L14.1212 12.707C13.7306 12.3164 13.0975 12.3164 12.707 12.707C12.3164 13.0975 12.3164 13.7306 12.707 14.1212L18.3639 19.7781L12.707 25.435C12.3165 25.8256 12.3165 26.4587 12.707 26.8492C13.0975 27.2398 13.7307 27.2398 14.1212 26.8492L19.7781 21.1923L25.4349 26.8491Z" fill="white"/>
</svg>
