<svg width="80" height="80" viewBox="0 0 80 80" fill="none" xmlns="http://www.w3.org/2000/svg">
<circle cx="40" cy="40" r="40" fill="#FD6F08"/>
<path fill-rule="evenodd" clip-rule="evenodd" d="M26.6667 27.9165C26.5562 27.9165 26.4502 27.9604 26.372 28.0385C26.2939 28.1167 26.25 28.2227 26.25 28.3332V44.9998C26.25 45.1103 26.2939 45.2163 26.372 45.2945C26.4502 45.3726 26.5562 45.4165 26.6667 45.4165H53.3333C53.4438 45.4165 53.5498 45.3726 53.628 45.2945C53.7061 45.2163 53.75 45.1103 53.75 44.9998V28.3332C53.75 28.2227 53.7061 28.1167 53.628 28.0385C53.5498 27.9604 53.4438 27.9165 53.3333 27.9165H26.6667ZM24.6043 26.2708C25.1513 25.7238 25.8931 25.4165 26.6667 25.4165H53.3333C54.1069 25.4165 54.8487 25.7238 55.3957 26.2708C55.9427 26.8178 56.25 27.5596 56.25 28.3332V44.9998C56.25 45.7734 55.9427 46.5152 55.3957 47.0622C54.8487 47.6092 54.1069 47.9165 53.3333 47.9165H26.6667C25.8931 47.9165 25.1513 47.6092 24.6043 47.0622C24.0573 46.5153 23.75 45.7734 23.75 44.9998V28.3332C23.75 27.5596 24.0573 26.8178 24.6043 26.2708Z" fill="white"/>
<path fill-rule="evenodd" clip-rule="evenodd" d="M30.417 53.3335C30.417 52.6431 30.9766 52.0835 31.667 52.0835H48.3337C49.024 52.0835 49.5837 52.6431 49.5837 53.3335C49.5837 54.0239 49.024 54.5835 48.3337 54.5835H31.667C30.9766 54.5835 30.417 54.0239 30.417 53.3335Z" fill="white"/>
<path fill-rule="evenodd" clip-rule="evenodd" d="M35 45.4165C35.6904 45.4165 36.25 45.9761 36.25 46.6665V53.3332C36.25 54.0235 35.6904 54.5832 35 54.5832C34.3096 54.5832 33.75 54.0235 33.75 53.3332V46.6665C33.75 45.9761 34.3096 45.4165 35 45.4165Z" fill="white"/>
<path fill-rule="evenodd" clip-rule="evenodd" d="M45 45.4165C45.6904 45.4165 46.25 45.9761 46.25 46.6665V53.3332C46.25 54.0235 45.6904 54.5832 45 54.5832C44.3096 54.5832 43.75 54.0235 43.75 53.3332V46.6665C43.75 45.9761 44.3096 45.4165 45 45.4165Z" fill="white"/>
<path fill-rule="evenodd" clip-rule="evenodd" d="M35 32.0835C35.6904 32.0835 36.25 32.6431 36.25 33.3335V40.0002C36.25 40.6905 35.6904 41.2502 35 41.2502C34.3096 41.2502 33.75 40.6905 33.75 40.0002V33.3335C33.75 32.6431 34.3096 32.0835 35 32.0835Z" fill="white"/>
<path fill-rule="evenodd" clip-rule="evenodd" d="M40 37.0835C40.6904 37.0835 41.25 37.6431 41.25 38.3335V40.0002C41.25 40.6905 40.6904 41.2502 40 41.2502C39.3096 41.2502 38.75 40.6905 38.75 40.0002V38.3335C38.75 37.6431 39.3096 37.0835 40 37.0835Z" fill="white"/>
<path fill-rule="evenodd" clip-rule="evenodd" d="M45 35.4165C45.6904 35.4165 46.25 35.9761 46.25 36.6665V39.9998C46.25 40.6902 45.6904 41.2498 45 41.2498C44.3096 41.2498 43.75 40.6902 43.75 39.9998V36.6665C43.75 35.9761 44.3096 35.4165 45 35.4165Z" fill="white"/>
<path fill-rule="evenodd" clip-rule="evenodd" d="M40 37.0835C40.6904 37.0835 41.25 37.6431 41.25 38.3335V40.0002C41.25 40.6905 40.6904 41.2502 40 41.2502C39.3096 41.2502 38.75 40.6905 38.75 40.0002V38.3335C38.75 37.6431 39.3096 37.0835 40 37.0835Z" fill="white"/>
</svg>
