<svg width="80" height="80" viewBox="0 0 80 80" fill="none" xmlns="http://www.w3.org/2000/svg">
<circle cx="40" cy="40" r="40" fill="#FD6F08"/>
<path fill-rule="evenodd" clip-rule="evenodd" d="M39.9881 22.0864C40.4639 22.0864 40.8984 22.3566 41.109 22.7832L45.9614 32.6153L56.8107 34.1877C57.2818 34.256 57.6733 34.5859 57.8203 35.0387C57.9673 35.4914 57.8444 35.9884 57.5033 36.3205L49.6413 43.9734L51.4951 54.7801C51.5756 55.2493 51.3826 55.7234 50.9974 56.003C50.6121 56.2827 50.1015 56.3192 49.6804 56.0973L39.9991 50.9957L30.2948 56.0978C29.8736 56.3192 29.3633 56.2824 28.9784 56.0027C28.5934 55.723 28.4006 55.249 28.4811 54.7801L30.3349 43.9734L22.4729 36.3205C22.1318 35.9884 22.0088 35.4914 22.1559 35.0387C22.3029 34.5859 22.6944 34.256 23.1655 34.1877L34.0148 32.6153L38.8672 22.7832C39.0777 22.3566 39.5123 22.0864 39.9881 22.0864ZM39.9881 26.1609L35.9657 34.3113C35.7835 34.6804 35.4314 34.9361 35.024 34.9952L26.034 36.2981L32.55 42.6407C32.845 42.9279 32.9797 43.342 32.9101 43.7478L31.3733 52.7063L39.4181 48.4767C39.7826 48.285 40.2181 48.2852 40.5825 48.4772L48.6023 52.7033L47.0661 43.7478C46.9965 43.342 47.1312 42.9279 47.4262 42.6407L53.9422 36.2981L44.9521 34.9952C44.5448 34.9361 44.1927 34.6804 44.0105 34.3113L39.9881 26.1609Z" fill="white"/>
</svg>
