<svg width="80" height="80" viewBox="0 0 80 80" fill="none" xmlns="http://www.w3.org/2000/svg">
<circle cx="40" cy="40" r="40" fill="#FD6F08"/>
<path fill-rule="evenodd" clip-rule="evenodd" d="M33.7814 24.987C35.7529 24.1703 37.866 23.75 40 23.75C42.134 23.75 44.2471 24.1703 46.2186 24.987C48.1901 25.8036 49.9815 27.0006 51.4905 28.5095C52.9994 30.0185 54.1964 31.8099 55.013 33.7814C55.8297 35.7529 56.25 37.866 56.25 40C56.25 42.134 55.8297 44.2471 55.013 46.2186C54.1964 48.1901 52.9994 49.9815 51.4905 51.4905C49.9815 52.9994 48.1901 54.1964 46.2186 55.013C44.2471 55.8297 42.134 56.25 40 56.25C37.866 56.25 35.7529 55.8297 33.7814 55.013C31.8099 54.1964 30.0185 52.9994 28.5095 51.4905C27.0006 49.9815 25.8036 48.1901 24.987 46.2186C24.1703 44.2471 23.75 42.134 23.75 40C23.75 37.866 24.1703 35.7529 24.987 33.7814C25.8036 31.8099 27.0006 30.0185 28.5095 28.5095C30.0185 27.0006 31.8099 25.8036 33.7814 24.987ZM40 26.25C38.1943 26.25 36.4063 26.6057 34.7381 27.2967C33.0699 27.9877 31.5541 29.0005 30.2773 30.2773C29.0005 31.5541 27.9877 33.0699 27.2967 34.7381C26.6057 36.4063 26.25 38.1943 26.25 40C26.25 41.8057 26.6057 43.5937 27.2967 45.2619C27.9877 46.9301 29.0005 48.4459 30.2773 49.7227C31.5541 50.9995 33.0699 52.0123 34.7381 52.7033C36.4063 53.3943 38.1943 53.75 40 53.75C41.8057 53.75 43.5937 53.3943 45.2619 52.7033C46.9301 52.0123 48.4459 50.9995 49.7227 49.7227C50.9995 48.4459 52.0123 46.9301 52.7033 45.2619C53.3943 43.5937 53.75 41.8057 53.75 40C53.75 38.1943 53.3943 36.4063 52.7033 34.7381C52.0123 33.0699 50.9995 31.5541 49.7227 30.2773C48.4459 29.0005 46.9301 27.9877 45.2619 27.2967C43.5937 26.6057 41.8057 26.25 40 26.25Z" fill="white"/>
<path fill-rule="evenodd" clip-rule="evenodd" d="M35.5806 32.2471C36.7527 31.075 38.3424 30.4165 40 30.4165C41.6576 30.4165 43.2473 31.075 44.4194 32.2471C45.5915 33.4192 46.25 35.0089 46.25 36.6665C46.25 38.3241 45.5915 39.9138 44.4194 41.0859C43.2473 42.258 41.6576 42.9165 40 42.9165C38.3424 42.9165 36.7527 42.258 35.5806 41.0859C34.4085 39.9138 33.75 38.3241 33.75 36.6665C33.75 35.0089 34.4085 33.4192 35.5806 32.2471ZM40 32.9165C39.0054 32.9165 38.0516 33.3116 37.3483 34.0149C36.6451 34.7181 36.25 35.6719 36.25 36.6665C36.25 37.6611 36.6451 38.6149 37.3483 39.3182C38.0516 40.0214 39.0054 40.4165 40 40.4165C40.9946 40.4165 41.9484 40.0214 42.6517 39.3182C43.3549 38.6149 43.75 37.6611 43.75 36.6665C43.75 35.6719 43.3549 34.7181 42.6517 34.0149C41.9484 33.3116 40.9946 32.9165 40 32.9165Z" fill="white"/>
<path fill-rule="evenodd" clip-rule="evenodd" d="M46.5704 48.9887C45.6349 48.2921 44.4997 47.9161 43.3334 47.9165H36.6663C35.5015 47.9162 34.3673 48.2913 33.4325 48.9863C32.4978 49.6812 31.8119 50.659 31.4768 51.7745C31.2781 52.4357 30.5811 52.8106 29.9199 52.612C29.2588 52.4133 28.8838 51.7163 29.0825 51.0552C29.5724 49.4248 30.5747 47.9957 31.9409 46.98C33.307 45.9644 34.964 45.4161 36.6663 45.4165L43.3325 45.4165C43.3324 45.4165 43.3327 45.4165 43.3325 45.4165C45.0369 45.416 46.6965 45.9656 48.0635 46.9836C49.4307 48.0016 50.4327 49.4338 50.9207 51.067C51.1183 51.7285 50.7422 52.4249 50.0808 52.6225C49.4193 52.8201 48.7229 52.4441 48.5253 51.7826C48.1914 50.6652 47.5058 49.6853 46.5704 48.9887Z" fill="white"/>
</svg>
